<svg version="1.1" id="Layer_1" xmlns="http://www.w3.org/2000/svg" xmlns:xlink="http://www.w3.org/1999/xlink" x="0px" y="0px"
	 width="100%" viewBox="0 0 496 496" enable-background="new 0 0 496 496" xml:space="preserve">
<path fill="#000000" opacity="1.000000" stroke="none" 
	d="
M178.781982,103.831268 
	C183.675919,103.366302 185.005951,105.235123 184.625168,109.687828 
	C183.742218,120.012817 183.947617,120.030373 194.215515,120.078178 
	C200.923462,120.109406 201.175491,120.381432 201.189148,127.165680 
	C201.210739,137.881668 199.901672,136.406036 210.838318,136.737427 
	C214.881531,136.859940 216.857010,135.796371 216.146835,131.495743 
	C216.012833,130.684250 216.116379,129.833084 216.115021,129.000214 
	C216.101700,120.807281 216.101990,120.807281 224.061844,119.715714 
	C225.284241,116.080078 224.553680,112.240875 224.609238,108.484962 
	C224.653290,105.508827 225.359756,103.569031 228.781830,103.826363 
	C231.948105,104.064468 232.893646,102.318428 232.653824,99.502258 
	C232.625656,99.171677 232.650925,98.836281 232.655807,98.503181 
	C232.816833,87.515930 235.507355,85.505157 246.597870,87.751678 
	C249.044174,88.247208 249.395462,89.708870 249.395737,91.678200 
	C249.396286,95.478409 249.395905,99.278610 249.395905,102.872795 
	C258.156250,105.149750 258.132996,105.149879 258.182739,114.114258 
	C258.192688,115.908752 257.790009,117.772865 258.647278,119.410645 
	C259.701904,120.411606 260.932190,120.137184 262.053406,120.110092 
	C265.272278,120.032318 266.629395,121.558525 266.302155,124.712280 
	C266.250885,125.206398 266.299103,125.710938 266.302734,126.210648 
	C266.383789,137.439362 267.222656,138.095062 278.536926,136.676743 
	C280.912476,136.378937 281.706726,135.306900 281.651276,133.129562 
	C281.604706,131.298538 281.650513,129.465210 281.651276,127.632904 
	C281.654510,120.127174 281.653931,120.127174 289.380096,120.092590 
	C297.702728,120.055336 297.702698,120.055336 297.693115,111.664551 
	C297.684204,103.858429 297.684235,103.858429 305.705139,103.853210 
	C313.807251,103.847939 313.807251,103.847939 313.829803,95.712502 
	C313.851990,87.704552 313.852051,87.678139 321.718201,87.697502 
	C332.255280,87.723434 331.319946,86.769371 331.326385,97.451195 
	C331.346283,130.433151 331.212799,163.415833 331.422058,196.396439 
	C331.454742,201.551804 329.654633,202.976578 324.822144,202.968475 
	C268.852905,202.874680 212.883347,202.880875 156.914139,202.991135 
	C152.251083,203.000305 150.967743,201.184219 150.986343,196.754807 
	C151.126984,163.273712 151.060516,129.791763 151.092407,96.310120 
	C151.100616,87.693329 151.155792,87.693375 159.519424,87.687271 
	C159.852570,87.687027 160.185730,87.687347 160.518875,87.687592 
	C168.337936,87.693146 168.337997,87.693153 168.348343,95.602493 
	C168.349426,96.435371 168.445496,97.281509 168.333145,98.098907 
	C167.749039,102.348770 169.294357,104.446968 173.828217,103.860855 
	C175.302536,103.670258 176.822311,103.831032 178.781982,103.831268 
M236.930878,121.505943 
	C233.646622,121.652298 233.544144,124.027122 233.377228,126.457314 
	C232.658463,136.921646 232.644485,137.029617 222.397263,137.292145 
	C218.915710,137.381332 217.348206,138.405426 217.195358,142.165024 
	C216.722687,153.791565 216.592651,153.667480 205.016602,153.434052 
	C201.375122,153.360611 200.071487,152.084396 199.978012,148.445190 
	C199.700043,137.624802 199.580765,137.459259 189.163177,137.399597 
	C184.963913,137.375519 183.441986,135.727722 183.699158,131.746399 
	C183.838364,129.591095 183.699585,127.416222 183.649994,125.251007 
	C183.622940,124.068863 183.569489,122.592537 182.429428,122.147621 
	C178.758102,120.714828 174.865051,120.858253 171.167709,121.831001 
	C167.750427,122.730072 168.348068,125.942978 168.341660,128.542328 
	C168.302139,144.537628 168.310272,160.533066 168.315399,176.528458 
	C168.317978,184.621857 168.736877,185.040710 176.737915,185.045685 
	C219.392075,185.072189 262.046234,185.095490 304.700378,185.114868 
	C306.366028,185.115631 308.032654,185.016052 309.697113,185.049393 
	C312.635254,185.108215 313.860565,183.717117 313.854675,180.784714 
	C313.817902,162.458099 313.863892,144.131332 313.844055,125.804665 
	C313.842651,124.510551 314.161896,122.682259 312.866516,122.121529 
	C309.080109,120.482506 304.967041,120.912811 301.135406,121.724724 
	C298.075531,122.373085 298.452728,125.611740 298.422119,128.036758 
	C298.298889,137.811356 299.450043,137.289429 288.738190,137.339432 
	C288.238373,137.341766 287.736206,137.382721 287.239075,137.348450 
	C283.585510,137.096634 282.344971,138.830505 282.254333,142.424149 
	C281.967133,153.815567 281.856812,153.672882 270.463806,153.446579 
	C266.693237,153.371674 265.667938,151.907288 265.607880,148.370148 
	C265.423950,137.536102 265.306488,137.350922 254.450424,137.422363 
	C250.031143,137.451462 248.737793,135.904358 248.734787,131.596512 
	C248.727234,120.812866 250.639648,121.138481 238.185867,121.375633 
	C238.019516,121.378799 237.853485,121.398567 236.930878,121.505943 
z"/>
<path fill="#000000" opacity="1.000000" stroke="none" 
	d="
M312.162537,290.843384 
	C320.472534,290.854340 328.306793,290.993713 336.134186,290.821350 
	C340.072845,290.734650 341.511902,292.337311 341.329193,296.162598 
	C341.130615,300.318878 341.140228,304.497650 341.318207,308.655518 
	C341.466858,312.127747 340.042511,313.376587 336.619415,313.325623 
	C327.790344,313.194122 318.954895,313.432648 310.127991,313.243561 
	C306.410431,313.163971 305.070343,314.473480 305.247101,318.172638 
	C305.485382,323.160126 305.548157,328.182190 305.239563,333.161713 
	C304.972046,337.478851 306.374298,339.036499 310.856110,338.940582 
	C323.014130,338.680450 335.184692,339.023590 347.343719,338.787598 
	C351.987183,338.697449 353.643616,340.391541 353.323730,344.914551 
	C353.042267,348.894073 353.179871,352.910095 353.270905,356.906830 
	C353.338440,359.871460 352.026520,361.118225 349.087952,361.115601 
	C328.593140,361.097351 308.098083,361.092712 287.603546,361.185272 
	C283.101593,361.205597 283.071411,358.299072 283.072632,355.129517 
	C283.078430,339.966553 282.988159,324.803162 283.078674,309.640778 
	C283.201996,288.984497 282.709930,268.326019 283.416321,247.669220 
	C283.535278,244.190765 284.631195,243.001129 288.047211,243.019257 
	C308.041779,243.125443 328.037201,243.125137 348.032104,243.077850 
	C351.787994,243.068970 353.528717,244.484268 353.304657,248.420471 
	C353.077698,252.406830 353.091736,256.423096 353.284668,260.412506 
	C353.464752,264.136322 351.875397,265.362518 348.267670,265.324890 
	C336.105408,265.198059 323.940796,265.287628 311.777100,265.301544 
	C305.306061,265.308960 305.303925,265.315582 305.301697,271.998962 
	C305.300293,276.164612 305.624634,280.360809 305.228424,284.488159 
	C304.737518,289.602509 306.640869,291.658173 312.162537,290.843384 
z"/>
<path fill="#000000" opacity="1.000000" stroke="none" 
	d="
M87.970551,313.295105 
	C84.982208,313.294434 82.454269,313.541229 79.993286,313.240356 
	C74.987801,312.628387 73.729912,314.956390 73.818863,319.556458 
	C74.044159,331.207642 73.932579,342.866241 73.883347,354.521545 
	C73.856148,360.960205 73.629547,361.118713 67.025887,361.142883 
	C63.695744,361.155090 60.352722,360.967163 57.038586,361.199158 
	C52.817184,361.494720 51.520435,359.622711 51.620777,355.598480 
	C51.828232,347.278168 51.684967,338.949127 51.685066,330.623657 
	C51.685387,303.482635 51.801182,276.340668 51.579685,249.201477 
	C51.539314,244.254471 53.256565,242.895172 57.909225,242.984634 
	C69.893494,243.215088 81.885742,243.135223 93.873283,243.020218 
	C97.104774,242.989212 99.571754,243.947739 101.831146,246.296799 
	C107.254814,251.935699 112.820465,257.442291 118.450142,262.876556 
	C120.518242,264.872864 121.049324,267.120575 121.458984,269.903473 
	C123.567657,284.228180 119.832092,295.996552 107.504341,304.403015 
	C106.829086,304.863495 106.228127,305.502441 105.749435,306.170715 
	C101.463264,312.154541 95.705872,314.516205 87.970551,313.295105 
M95.870743,270.673462 
	C93.157982,268.121338 91.062927,265.124878 86.433456,265.172211 
	C73.883560,265.300659 73.881187,265.069061 73.922157,277.746155 
	C73.968735,292.156647 73.968727,292.156555 88.408699,290.816681 
	C88.573723,290.801361 88.746475,290.825928 88.904732,290.787292 
	C94.036095,289.534424 97.061600,285.489227 99.168007,281.376526 
	C100.904884,277.985321 100.023422,273.857544 95.870743,270.673462 
z"/>
<path fill="#000000" opacity="1.000000" stroke="none" 
	d="
M205.426926,251.013046 
	C209.284561,246.806061 214.272156,244.939224 219.296860,243.334488 
	C222.323868,242.367783 224.612000,243.630112 226.098083,246.758667 
	C229.813232,254.580017 233.768066,262.288666 237.703140,270.003571 
	C238.590530,271.743347 239.143967,273.743927 241.243927,275.264557 
	C243.919479,272.262390 245.185974,268.460052 246.995148,265.032867 
	C250.025787,259.291809 253.046539,253.520676 255.598358,247.559647 
	C257.591675,242.903275 260.758636,242.461899 264.904205,243.736191 
	C265.063232,243.785095 265.220978,243.838806 265.377045,243.896515 
	C278.275391,248.666092 278.329895,248.812790 272.232513,261.033173 
	C266.135162,273.253571 260.131134,285.521698 253.902908,297.674927 
	C252.291199,300.819855 252.308167,303.458588 253.908340,306.592987 
	C261.178314,320.833344 268.175446,335.213196 275.477722,349.436615 
	C277.304993,352.995728 276.996460,354.802155 273.173187,356.714355 
	C259.394867,363.605438 259.459412,363.744995 252.491318,349.917847 
	C248.925446,342.841827 245.358704,335.766296 241.824036,328.753326 
	C239.481247,329.510193 239.229324,331.160095 238.588333,332.424164 
	C234.445358,340.594238 230.200363,348.720123 226.349167,357.027557 
	C224.327850,361.387817 221.299149,361.776489 217.367218,360.586060 
	C217.208206,360.537933 217.056808,360.465088 216.900467,360.407623 
	C204.027847,355.678528 203.917145,355.494965 209.850266,343.440033 
	C215.806213,331.338623 221.734589,319.220276 227.947479,307.250763 
	C229.827255,303.629242 229.959076,300.708191 228.063934,296.994904 
	C220.347977,281.876617 212.961304,266.590240 205.426926,251.013046 
z"/>
<path fill="#000000" opacity="1.000000" stroke="none" 
	d="
M179.881958,361.165894 
	C168.571335,361.162689 157.743393,361.008881 146.923050,361.228455 
	C142.494583,361.318268 140.380753,360.045654 140.771439,355.290558 
	C141.084091,351.485291 140.983063,347.629181 140.818405,343.806274 
	C140.660446,340.138672 142.212769,338.833252 145.837082,338.804108 
	C152.825653,338.747986 152.833160,338.590302 152.837204,331.581818 
	C152.848846,311.430878 152.736633,291.278717 152.947403,271.129913 
	C152.995590,266.523712 151.515015,264.614624 146.937927,265.280151 
	C142.030060,265.993744 140.402847,263.684814 140.782501,258.990417 
	C141.090378,255.183762 140.942184,251.333496 140.869675,247.504959 
	C140.815262,244.631592 142.019897,243.105774 144.955841,243.104935 
	C157.612122,243.101334 170.268402,243.110565 182.924652,243.092285 
	C186.138214,243.087646 187.312866,244.759384 187.234451,247.815735 
	C187.131973,251.810013 187.034409,255.818039 187.250168,259.803070 
	C187.469940,263.861969 185.947327,265.449066 181.775345,265.374634 
	C175.199570,265.257294 175.201828,265.476044 175.202301,271.903046 
	C175.203812,292.053925 175.337692,312.206451 175.099609,332.354553 
	C175.041870,337.241882 176.237289,339.645508 181.471313,338.886353 
	C185.781219,338.261261 187.593018,340.210876 187.261627,344.575348 
	C187.022751,347.721527 187.220703,350.900269 187.208740,354.064423 
	C187.182465,361.019165 187.178574,361.019165 179.881958,361.165894 
z"/>
<path fill="#000000" opacity="1.000000" stroke="none" 
	d="
M393.000000,361.149658 
	C383.833435,361.148987 375.163666,361.007690 366.501740,361.207489 
	C362.364014,361.302979 360.551636,360.172028 360.571106,355.599579 
	C360.722839,319.934021 360.707458,284.267365 360.581909,248.601624 
	C360.567505,244.509109 361.876343,242.805969 365.995941,243.027237 
	C369.651733,243.223602 373.335236,243.212479 376.991241,243.013077 
	C381.127991,242.787445 382.426117,244.526901 382.402283,248.612167 
	C382.260406,272.944336 382.342010,297.277771 382.348419,321.610779 
	C382.349365,325.277405 382.682648,328.981873 382.271149,332.601685 
	C381.666504,337.920685 384.005402,339.051300 388.848328,338.933594 
	C400.674286,338.646179 412.514618,338.993134 424.344299,338.794739 
	C428.743744,338.720947 430.871124,339.917145 430.408112,344.708862 
	C430.057129,348.341339 430.143097,352.049225 430.397736,355.698242 
	C430.682861,359.784027 429.185883,361.320038 424.998230,361.231384 
	C414.502960,361.009186 403.999908,361.152466 393.000000,361.149658 
z"/>
<path fill="#000000" opacity="1.000000" stroke="none" 
	d="
M188.845459,401.909943 
	C188.854477,394.595978 188.860580,387.767975 188.875717,380.940002 
	C188.880951,378.576996 189.255615,376.612457 192.385681,376.716736 
	C195.377853,376.816345 195.301270,378.859497 195.312271,380.902130 
	C195.333725,384.889465 195.318558,388.877045 195.318558,393.546448 
	C197.670547,391.617889 199.902145,391.097748 202.886810,392.953369 
	C202.886810,388.308105 202.877823,384.351593 202.890213,380.395142 
	C202.897537,378.052124 203.756989,376.596161 206.439438,376.734070 
	C209.026840,376.867096 209.269836,378.580231 209.270706,380.535553 
	C209.274521,389.195404 209.288864,397.855377 209.248779,406.515045 
	C209.242096,407.959747 209.454269,409.651306 207.436401,410.133087 
	C205.344940,410.632507 203.933731,409.763031 202.909836,407.950928 
	C201.780334,405.951996 201.212677,403.600494 199.283737,401.994568 
	C197.301010,402.789276 197.118042,404.823120 196.248734,406.333893 
	C195.085526,408.355530 194.235809,410.802917 191.193451,410.178497 
	C188.085678,409.540649 189.090942,406.889374 188.860245,404.892151 
	C188.765320,404.070496 188.845520,403.228607 188.845459,401.909943 
z"/>
<path fill="#000000" opacity="1.000000" stroke="none" 
	d="
M291.125977,382.983704 
	C287.659302,389.966431 284.351562,396.604218 280.903076,403.524414 
	C284.066406,404.575653 286.697144,404.203400 289.293854,404.228638 
	C291.296661,404.248108 292.963440,404.734222 293.003876,407.217194 
	C293.043152,409.629333 291.605652,410.351868 289.481140,410.348145 
	C285.662872,410.341492 281.843872,410.411194 278.026398,410.359497 
	C272.407440,410.283386 271.704132,409.211609 274.097229,404.234222 
	C277.322327,397.526337 280.640961,390.863464 284.085358,383.843079 
	C281.302643,382.347565 278.599731,383.142212 276.088776,382.801239 
	C273.995819,382.516998 272.704620,381.674377 272.809784,379.317139 
	C272.912567,377.011780 274.431305,376.700562 276.220490,376.697601 
	C281.633301,376.688721 287.046112,376.694397 292.079987,376.694397 
	C293.366669,379.528625 291.852936,380.977264 291.125977,382.983704 
z"/>
<path fill="#000000" opacity="1.000000" stroke="none" 
	d="
M249.899261,60.319920 
	C249.803604,74.573929 251.011856,71.955780 238.244431,72.419975 
	C233.907700,72.577652 232.400635,71.177155 232.581970,66.773987 
	C233.110184,53.949120 230.126968,55.218121 244.687775,55.046688 
	C248.146210,55.005966 250.105408,56.148964 249.899261,60.319920 
z"/>
<path fill="#000000" opacity="1.000000" stroke="none" 
	d="
M331.183472,69.759644 
	C330.592041,72.451698 328.772858,72.287071 327.135254,72.314453 
	C324.139709,72.364525 321.142548,72.330261 318.146240,72.309425 
	C317.483215,72.304817 316.628815,72.458504 316.187714,72.118019 
	C311.565491,68.550430 314.659546,63.538574 313.919434,59.229622 
	C313.463898,56.577656 315.024475,55.221142 317.677704,55.140583 
	C317.843964,55.135532 318.010010,55.111393 318.176025,55.112720 
	C333.864624,55.238029 331.183319,52.895897 331.183472,69.759644 
z"/>
<path fill="#000000" opacity="1.000000" stroke="none" 
	d="
M160.910065,55.061954 
	C168.305832,55.284225 168.376282,55.284763 168.325180,61.973404 
	C168.232864,74.057564 169.525360,72.215714 158.129822,72.330139 
	C151.108246,72.400650 151.107468,72.322990 151.086899,65.146957 
	C151.086426,64.981590 151.086945,64.816223 151.086731,64.650856 
	C151.074432,55.102440 151.074417,55.102440 160.910065,55.061954 
z"/>
<path fill="#000000" opacity="1.000000" stroke="none" 
	d="
M237.825745,393.982788 
	C237.422668,389.246796 239.209091,384.590485 235.062607,381.013000 
	C234.210236,380.277588 234.305389,378.131470 235.828354,377.062683 
	C236.980682,376.254089 246.275848,376.556061 246.988174,377.462311 
	C248.020264,378.775421 248.254791,380.838989 247.180298,381.587250 
	C242.980896,384.511627 244.282639,388.719421 244.424805,392.461700 
	C244.596176,396.973663 242.456772,402.075012 247.375809,405.736389 
	C248.498672,406.572144 247.945480,408.605469 246.786575,409.778717 
	C245.858414,410.718353 236.553284,410.658295 235.584824,409.745575 
	C234.319962,408.553528 234.174988,406.251526 235.022507,405.704681 
	C239.642883,402.723236 237.196442,398.254547 237.825745,393.982788 
z"/>
</svg>